<svg xmlns="http://www.w3.org/2000/svg" width="202" height="136" viewBox="0 0 202 136">
  <g id="Grupo_171" data-name="Grupo 171" transform="translate(1139 713)">
    <circle id="Elipse_3" data-name="Elipse 3" cx="68" cy="68" r="68" transform="translate(-1073 -713)" fill="#a9a8a9" opacity="0.3"/>
    <g id="Grupo_119" data-name="Grupo 119" transform="translate(-1429.676 -1750.54)">
      <path id="Trazado_889" data-name="Trazado 889" d="M326.083,260.264H160.722a3.324,3.324,0,0,1-3.32-3.32V166.276a3.324,3.324,0,0,1,3.32-3.32h165.36a3.324,3.324,0,0,1,3.32,3.32v90.667A3.324,3.324,0,0,1,326.083,260.264Z" transform="translate(133.274 900.719)" fill="#fff"/>
      <rect id="Rectángulo_138" data-name="Rectángulo 138" width="39.925" height="30.502" transform="translate(417.665 1078.334)" fill="#f2f2f2"/>
      <rect id="Rectángulo_139" data-name="Rectángulo 139" width="35.958" height="27.471" transform="translate(419.649 1079.85)" fill="#fff"/>
      <path id="Trazado_891" data-name="Trazado 891" d="M692.806,245.337h.014a9.587,9.587,0,0,0,.214-19.134.219.219,0,0,0-.236.216l-.21,18.7a.219.219,0,0,0,.217.221Z" transform="translate(-254.547 854.889)" fill="#3f3d56"/>
      <path id="Trazado_892" data-name="Trazado 892" d="M659.181,237.433a.282.282,0,0,1,.2.085l6.437,6.583a.28.28,0,0,1,.08.2l-.1,8.947a.278.278,0,0,1-.091.2.283.283,0,0,1-.212.074,9.65,9.65,0,0,1-6.526-16,.283.283,0,0,1,.2-.1Z" transform="translate(-228.44 846.75)" fill="#e6e6e6"/>
      <path id="Trazado_893" data-name="Trazado 893" d="M674.077,225.927a.283.283,0,0,1,.193.079.278.278,0,0,1,.086.206l-.09,8.072a.281.281,0,0,1-.482.193l-5.617-5.744a.282.282,0,0,1,.015-.408,9.67,9.67,0,0,1,5.878-2.4Z" transform="translate(-236.791 855.088)" fill="#d53566"/>
      <path id="Trazado_894" data-name="Trazado 894" d="M670.271,305.193a1.722,1.722,0,1,1-1.7-1.741A1.722,1.722,0,0,1,670.271,305.193Z" transform="translate(-235.878 798.91)" fill="#d53566"/>
      <path id="Trazado_895" data-name="Trazado 895" d="M688.137,305.393a1.722,1.722,0,1,1-1.7-1.741A1.722,1.722,0,0,1,688.137,305.393Z" transform="translate(-248.825 798.765)" fill="#3f3d56"/>
      <path id="Trazado_896" data-name="Trazado 896" d="M706,305.594a1.722,1.722,0,1,1-1.7-1.741A1.722,1.722,0,0,1,706,305.594Z" transform="translate(-261.771 798.62)" fill="#e6e6e6"/>
      <rect id="Rectángulo_140" data-name="Rectángulo 140" width="39.925" height="30.502" transform="translate(417.245 1113.636)" fill="#f2f2f2"/>
      <rect id="Rectángulo_141" data-name="Rectángulo 141" width="35.958" height="27.471" transform="translate(419.229 1115.152)" fill="#fff"/>
      <circle id="Elipse_5" data-name="Elipse 5" cx="1.493" cy="1.493" r="1.493" transform="translate(423.837 1121.195)" fill="#3f3d56"/>
      <path id="Trazado_897" data-name="Trazado 897" d="M688.9,372.4a1.013,1.013,0,0,1,0,2.025H673.2a1.013,1.013,0,0,1,0-2.025h15.7m0-.248H673.2a1.26,1.26,0,0,0,0,2.521h15.7a1.26,1.26,0,0,0,0-2.521Z" transform="translate(-239.58 749.129)" fill="#3f3d56"/>
      <path id="Trazado_898" data-name="Trazado 898" d="M676.613,374.67h-11.82a1.26,1.26,0,0,1,0-2.521h11.82a1.26,1.26,0,1,1,0,2.521Z" transform="translate(-233.49 749.129)" fill="#d53566"/>
      <circle id="Elipse_6" data-name="Elipse 6" cx="1.493" cy="1.493" r="1.493" transform="translate(423.837 1127.394)" fill="#3f3d56"/>
      <path id="Trazado_899" data-name="Trazado 899" d="M688.9,394.912a1.013,1.013,0,0,1,0,2.025H673.2a1.013,1.013,0,1,1,0-2.025h15.7m0-.248H673.2a1.261,1.261,0,0,0,0,2.521h15.7a1.26,1.26,0,1,0,0-2.521Z" transform="translate(-239.58 732.814)" fill="#3f3d56"/>
      <path id="Trazado_900" data-name="Trazado 900" d="M681.076,397.185H664.792a1.26,1.26,0,0,1,0-2.521h16.284a1.26,1.26,0,1,1,0,2.521Z" transform="translate(-233.49 732.814)" fill="#d53566"/>
      <circle id="Elipse_7" data-name="Elipse 7" cx="1.493" cy="1.493" r="1.493" transform="translate(423.837 1133.594)" fill="#3f3d56"/>
      <path id="Trazado_901" data-name="Trazado 901" d="M688.9,417.426a1.013,1.013,0,0,1,0,2.025H673.2a1.013,1.013,0,1,1,0-2.025h15.7m0-.248H673.2a1.26,1.26,0,0,0,0,2.521h15.7a1.26,1.26,0,0,0,0-2.521Z" transform="translate(-239.58 716.499)" fill="#3f3d56"/>
      <path id="Trazado_902" data-name="Trazado 902" d="M671.4,419.7h-6.613a1.26,1.26,0,0,1,0-2.521H671.4a1.26,1.26,0,0,1,0,2.521Z" transform="translate(-233.49 716.499)" fill="#d53566"/>
      <rect id="Rectángulo_142" data-name="Rectángulo 142" width="111.545" height="57.167" transform="translate(296.875 1083.73)" fill="#f2f2f2"/>
      <rect id="Rectángulo_143" data-name="Rectángulo 143" width="104.108" height="51.485" transform="translate(300.593 1086.571)" fill="#fff"/>
      <path id="Trazado_903" data-name="Trazado 903" d="M324.264,307.579H248.371a.238.238,0,0,1-.238-.238V270.966a.238.238,0,0,1,.475,0V307.1h75.655a.238.238,0,1,1,0,.475Z" transform="translate(67.526 822.623)" fill="#3f3d56"/>
      <path id="Trazado_904" data-name="Trazado 904" d="M287.862,366.317h-6.9a.706.706,0,0,1-.705-.7V356.1a.706.706,0,0,1,.705-.7h6.9a.706.706,0,0,1,.705.7v9.516A.706.706,0,0,1,287.862,366.317Z" transform="translate(44.25 761.272)" fill="#d53566"/>
      <path id="Trazado_905" data-name="Trazado 905" d="M333.578,342.565h-6.9a.706.706,0,0,1-.705-.7V323.319a.706.706,0,0,1,.705-.705h6.9a.706.706,0,0,1,.705.705V341.86A.706.706,0,0,1,333.578,342.565Z" transform="translate(11.122 785.024)" fill="#d53566"/>
      <path id="Trazado_906" data-name="Trazado 906" d="M379.294,366.317h-6.9a.706.706,0,0,1-.705-.7V356.1a.706.706,0,0,1,.705-.7h6.9a.706.706,0,0,1,.705.7v9.516A.706.706,0,0,1,379.294,366.317Z" transform="translate(-22.006 761.272)" fill="#d53566"/>
      <path id="Trazado_907" data-name="Trazado 907" d="M425.009,333.189h-6.9a.69.69,0,0,1-.705-.673V310.348a.69.69,0,0,1,.705-.673h6.9a.69.69,0,0,1,.705.673v22.167A.69.69,0,0,1,425.009,333.189Z" transform="translate(-55.133 794.401)" fill="#d53566"/>
      <path id="Trazado_908" data-name="Trazado 908" d="M470.725,316.313h-6.9a.706.706,0,0,1-.705-.705V287.092a.706.706,0,0,1,.705-.7h6.9a.706.706,0,0,1,.705.7v28.516A.706.706,0,0,1,470.725,316.313Z" transform="translate(-88.261 811.276)" fill="#d53566"/>
      <circle id="Elipse_8" data-name="Elipse 8" cx="1.425" cy="1.425" r="1.425" transform="translate(327.235 1110.964)" fill="#3f3d56"/>
      <circle id="Elipse_9" data-name="Elipse 9" cx="1.425" cy="1.425" r="1.425" transform="translate(339.824 1101.701)" fill="#3f3d56"/>
      <circle id="Elipse_10" data-name="Elipse 10" cx="1.425" cy="1.425" r="1.425" transform="translate(352.412 1110.964)" fill="#3f3d56"/>
      <circle id="Elipse_11" data-name="Elipse 11" cx="1.425" cy="1.425" r="1.425" transform="translate(365 1097.188)" fill="#3f3d56"/>
      <circle id="Elipse_12" data-name="Elipse 12" cx="1.425" cy="1.425" r="1.425" transform="translate(377.588 1091.963)" fill="#3f3d56"/>
      <path id="Trazado_909" data-name="Trazado 909" d="M191.454,155.724l-12.618-9.451-12.446,9.322-.285-.38,12.73-9.536,12.558,9.406,12.479-13.656.05-.02,12.588-5.072.178.441-12.538,5.052Z" transform="translate(162.412 956.984)" fill="#3f3d56"/>
    </g>
  </g>
</svg>
